<svg width="81" height="85" viewBox="0 0 81 85" fill="none" xmlns="http://www.w3.org/2000/svg">
<path d="M48.9206 55.4819H32.0723V66.8319H48.9206V55.4819Z" fill="#FBBCA0"/>
<g style="mix-blend-mode:multiply">
<path d="M36.1578 63.6959C38.7204 64.7434 41.4529 65.3133 44.2205 65.3774C45.7974 65.365 47.3701 65.2131 48.9202 64.9234V55.4819H32.1055V61.3671C33.3184 62.3617 34.6877 63.1487 36.1578 63.6959Z" fill="#E6E7E8"/>
</g>
<path d="M58.0949 34.4637C58.1453 34.0518 58.8347 33.3792 59.129 33.1522C59.8016 32.6477 60.4741 33.1522 60.6675 33.8248C60.8101 34.4312 60.8863 35.0514 60.8945 35.6744C61.0243 37.1498 60.7573 38.6331 60.121 39.9706C59.6771 40.8547 59.0107 41.608 58.1873 42.1565C58.0828 42.222 57.9625 42.2579 57.8392 42.2604C57.7159 42.2629 57.5942 42.2318 57.4872 42.1705C57.3801 42.1092 57.2917 42.02 57.2314 41.9124C57.1711 41.8048 57.1412 41.6829 57.1448 41.5596C57.1448 41.5596 58.0865 34.4637 58.0949 34.4637Z" fill="#FBBCA0"/>
<path d="M57.9505 35.355C57.9505 35.0607 58.4802 34.5815 58.6904 34.4133C59.1696 34.0518 59.6488 34.4133 59.7917 34.901C59.8942 35.3366 59.9506 35.7819 59.9599 36.2293C60.0542 37.2835 59.8625 38.3436 59.405 39.298C59.0866 39.9334 58.6086 40.4751 58.0178 40.8702C57.944 40.9168 57.8591 40.9428 57.7719 40.9455C57.6847 40.9481 57.5984 40.9273 57.522 40.8852C57.4455 40.8432 57.3818 40.7813 57.3374 40.7062C57.293 40.6311 57.2696 40.5455 57.2695 40.4582L57.9505 35.355Z" fill="#DDA78F"/>
<path d="M22.4806 34.4637C22.2592 33.9397 21.8987 33.4861 21.4381 33.1522C20.7739 32.6477 20.1013 33.1522 19.908 33.8248C19.7626 34.4309 19.6836 35.0511 19.6726 35.6744C19.5476 37.1496 19.8145 38.6316 20.446 39.9706C20.8929 40.8527 21.5587 41.6054 22.3797 42.1565C22.4843 42.2149 22.6023 42.2451 22.7221 42.2441C22.8419 42.243 22.9593 42.2108 23.0628 42.1505C23.1663 42.0903 23.2524 42.0041 23.3125 41.9005C23.3726 41.7968 23.4046 41.6793 23.4054 41.5596L22.4806 34.4637Z" fill="#FBBCA0"/>
<path d="M22.6151 35.355C22.6151 35.0607 22.0939 34.5815 21.8753 34.4133C21.3961 34.0518 20.9169 34.4133 20.7739 34.901C20.6742 35.3369 20.6207 35.7822 20.6142 36.2293C20.523 37.2825 20.7115 38.3411 21.1607 39.298C21.4876 39.9328 21.9708 40.4739 22.5647 40.8702C22.6384 40.9168 22.7233 40.9428 22.8106 40.9455C22.8978 40.9481 22.9841 40.9273 23.0605 40.8852C23.1369 40.8432 23.2007 40.7813 23.2451 40.7062C23.2895 40.6311 23.3129 40.5455 23.313 40.4582C23.313 40.4582 22.6236 35.355 22.6151 35.355Z" fill="#DDA78F"/>
<path d="M58.6229 35.8005C58.7521 40.4806 57.7362 45.1215 55.6635 49.3196C53.7422 52.7494 51.0866 55.7122 47.8867 57.996C45.4149 59.8372 42.7414 61.9895 39.6391 61.7373C36.377 61.4598 33.838 58.6097 31.4503 56.3902C28.0133 53.2049 25.3971 49.236 23.8248 44.8216C22.8365 41.9175 22.342 38.8682 22.3619 35.8005C22.3619 20.6084 30.475 11.0576 40.4882 11.0576C50.5014 11.0576 58.6229 20.6084 58.6229 35.8005Z" fill="#FBBCA0"/>
<path d="M69.9227 71.969L48.9042 66.479H32.0895L11.0711 71.969C8.08414 73.2587 5.50242 75.3336 3.60019 77.973C1.69797 80.6124 0.546306 83.7179 0.267578 86.9594H80.7346C80.4533 83.7175 79.2997 80.6122 77.3961 77.973C75.4926 75.3338 72.9101 73.2591 69.9227 71.969Z" fill="#FBBCA0"/>
<path d="M69.9227 71.969L48.9042 66.479H32.0895L11.0711 71.969C8.08414 73.2587 5.50242 75.3336 3.60019 77.973C1.69797 80.6124 0.546306 83.7179 0.267578 86.9594H80.7346C80.4533 83.7175 79.2997 80.6122 77.3961 77.973C75.4926 75.3338 72.9101 73.2591 69.9227 71.969Z" fill="white"/>
<path d="M69.9227 71.969L54.3859 67.9082L40.4969 86.9594L26.7676 67.8662L11.0795 71.969C8.09098 73.2575 5.50752 75.3318 3.60375 77.9714C1.69999 80.6109 0.54707 83.7169 0.267578 86.9594H80.7346C80.4533 83.7175 79.2997 80.6122 77.3961 77.973C75.4926 75.3338 72.9101 73.2591 69.9227 71.969Z" fill="#3C0000"/>
<path d="M40.4964 86.9846L26.7671 67.8662L15.7871 70.7415L29.819 80.6202L26.2123 82.2092L32.7028 86.9846H40.4964Z" fill="#270000"/>
<path d="M40.4961 87.0095L54.2337 67.8911L65.2138 70.7664L51.1819 80.6451L54.7886 82.2341L48.2981 87.0095H40.4961Z" fill="#270000"/>
<path d="M23.8086 66.8825L32.0478 63.0151L40.4384 66.521L48.8374 63.0151L57.6399 66.8825L45.197 75.2142L40.4384 68.4043L35.3183 75.2142L23.8086 66.8825Z" fill="#E2E3E4"/>
<path d="M51.1489 55.2468C51.1489 55.2468 55.6973 50.9422 56.7061 47.1421C56.7061 47.1421 51.3338 51.9931 49.459 51.4719L51.1489 55.2468Z" fill="#150000"/>
<path d="M31.1478 56.5329C31.1478 56.5329 25.8679 52.0181 24.4219 46.3516C24.4219 46.3516 30.4416 53.2961 32.3164 52.7832L31.1478 56.5329Z" fill="#150000"/>
<path d="M43.7079 49.1261C45.3071 49.0812 46.8909 49.449 48.3067 50.1939C50.9298 51.4298 51.594 54.7843 51.594 54.7843C50.396 56.0545 49.056 57.1829 47.6005 58.1472C42.6317 62.2669 40.3533 61.7372 40.3533 61.7372C38.5984 61.7009 36.9058 61.0795 35.5443 59.9716L30.895 56.3312C30.7525 55.1182 30.9622 53.8897 31.4988 52.7925C32.0355 51.6953 32.8766 50.7757 33.9217 50.1434C36.0908 49.0925 36.4859 49.227 36.4859 49.227C36.4859 49.227 39.7312 48.8487 40.5215 50.1434C40.5215 50.1434 41.3622 49.0757 43.5481 49.0757" fill="#1E0500"/>
<path d="M40.9331 52.4892C39.3055 51.8589 37.4966 51.8861 35.8887 52.5648C35.8887 52.5648 40.395 57.3402 45.5067 52.6237C45.5403 52.6237 42.7995 51.3458 40.9331 52.4892Z" fill="#FBBCA0"/>
<path d="M58.7834 13.3947C59.9691 12.5333 60.9224 11.3911 61.5577 10.0704C62.1931 8.74981 62.4907 7.29208 62.4238 5.82808C60.8484 7.44523 58.7762 8.48727 56.5386 8.78747C60.1454 6.61837 58.3546 2.12042 58.3546 2.12042C57.228 4.64264 52.2172 6.0803 52.2172 6.0803C54.647 4.45767 53.1336 0.766835 53.1336 0.766835C51.4522 3.65057 46.3573 4.91167 46.3573 4.91167C49.7202 3.03683 50.0734 0.363281 50.0734 0.363281C47.1055 2.94435 38.9924 4.20545 38.9924 4.20545C38.9924 4.20545 30.0638 5.04619 27.8442 12.4447C21.3117 13.3863 21.2445 24.4252 21.7237 30.3944L22.144 37.5995H23.5901C23.2303 34.8987 23.2303 32.1621 23.5901 29.4612C24.1837 27.1815 24.9022 24.9361 25.7424 22.7353C27.2978 19.3724 29.7107 18.3298 31.2492 18.0272L32.6533 17.9011C39.0513 16.9678 40.9345 21.5078 40.9345 21.5078C41.9602 18.8595 45.2643 18.2626 45.2643 18.2626C55.0001 16.9678 56.3957 24.6606 56.3957 24.6606L57.4887 29.5537C57.7896 32.2288 57.7641 34.9306 57.413 37.5995H58.8591L59.271 30.3944C59.2879 30.1958 59.2879 29.9961 59.271 29.7975C60.0361 25.7704 60.6919 19.221 58.7834 13.3947Z" fill="#150000"/>
</svg>
