<svg width="81" height="78" viewBox="0 0 81 78" fill="none" xmlns="http://www.w3.org/2000/svg">
<path d="M48.9242 46.4521H32.0742V57.8032H48.9242V46.4521Z" fill="#FBBCA0"/>
<g style="mix-blend-mode:multiply">
<path d="M36.1621 54.6669C38.7261 55.7105 41.4582 56.2803 44.2256 56.3486C45.8031 56.3375 47.3763 56.1827 48.9257 55.8861V46.4521H32.1094V52.3379C33.3227 53.3322 34.6921 54.1192 36.1621 54.6669Z" fill="#E6E7E8"/>
</g>
<path d="M59.0981 25.4233C59.157 25.0113 59.88 24.3387 60.1995 24.1116C60.3436 24.0138 60.5098 23.9533 60.6831 23.9356C60.8563 23.9179 61.0313 23.9436 61.1922 24.0103C61.3531 24.077 61.4949 24.1826 61.6049 24.3178C61.7148 24.4529 61.7895 24.6132 61.8221 24.7843C61.9723 25.396 62.0597 26.0215 62.0828 26.6509C62.2074 28.1307 61.9162 29.6159 61.242 30.9391C60.767 31.8384 60.0621 32.5956 59.199 33.1336C59.0916 33.197 58.9697 33.2319 58.845 33.2349C58.7203 33.2379 58.5969 33.2089 58.4865 33.1508C58.3762 33.0926 58.2825 33.0072 58.2144 32.9027C58.1464 32.7981 58.1062 32.6779 58.0977 32.5535L59.0981 25.4233Z" fill="#FBBCA0"/>
<path d="M58.947 26.3233C58.947 26.0206 59.5103 25.5414 59.7373 25.3816C59.8401 25.3109 59.9588 25.2669 60.0829 25.2537C60.2069 25.2405 60.3323 25.2586 60.4476 25.3062C60.5629 25.3538 60.6644 25.4295 60.743 25.5264C60.8216 25.6232 60.8747 25.7382 60.8976 25.8609C61.0069 26.2983 61.0662 26.7468 61.0741 27.1976C61.1667 28.2553 60.9629 29.3179 60.4856 30.2663C60.1434 30.9067 59.6389 31.446 59.0227 31.8301C58.9461 31.8765 58.8588 31.9024 58.7693 31.9053C58.6798 31.9082 58.5911 31.8879 58.5116 31.8465C58.4322 31.8051 58.3648 31.744 58.3159 31.6689C58.267 31.5939 58.2382 31.5075 58.2324 31.4181L58.947 26.3233Z" fill="#DDA78F"/>
<path d="M21.4805 25.4238C21.4216 25.0118 20.6986 24.3392 20.3791 24.1121C20.235 24.0143 20.0688 23.9538 19.8956 23.9361C19.7223 23.9184 19.5473 23.9441 19.3864 24.0108C19.2255 24.0775 19.0837 24.1831 18.9737 24.3182C18.8638 24.4533 18.7891 24.6137 18.7565 24.7848C18.6036 25.3955 18.5218 26.0219 18.5127 26.6514C18.3876 28.1312 18.6788 29.6166 19.3534 30.9396C19.831 31.837 20.5354 32.5937 21.3964 33.1341C21.5045 33.1971 21.6268 33.2316 21.7518 33.2344C21.8769 33.2373 22.0006 33.2084 22.1114 33.1504C22.2223 33.0925 22.3166 33.0074 22.3857 32.9031C22.4547 32.7987 22.4962 32.6786 22.5062 32.5539L21.4805 25.4238Z" fill="#FBBCA0"/>
<path d="M21.624 26.3228C21.582 26.0201 21.0691 25.5409 20.8421 25.3812C20.7394 25.3104 20.6206 25.2664 20.4966 25.2532C20.3726 25.24 20.2472 25.2581 20.1319 25.3057C20.0166 25.3533 19.915 25.429 19.8365 25.5259C19.7579 25.6228 19.7047 25.7377 19.6819 25.8604C19.5685 26.297 19.5092 26.746 19.5054 27.1972C19.4056 28.2543 19.6067 29.3181 20.0855 30.2658C20.4299 30.9046 20.9339 31.4434 21.5484 31.8296C21.625 31.876 21.7122 31.9019 21.8017 31.9048C21.8913 31.9077 21.98 31.8874 22.0594 31.846C22.1389 31.8046 22.2063 31.7435 22.2552 31.6684C22.3041 31.5934 22.3328 31.507 22.3387 31.4177L21.624 26.3228Z" fill="#DDA78F"/>
<path d="M59.6625 26.7687C59.7953 31.4653 58.7213 36.1176 56.543 40.2807C54.478 43.7461 51.6694 46.7098 48.3198 48.9579C45.7133 50.8077 42.905 52.9518 39.6005 52.6911C36.1616 52.4221 33.4962 49.5717 30.9738 47.3519C27.3718 44.2186 24.5992 40.2444 22.9019 35.7823C21.8508 32.8944 21.324 29.8419 21.3464 26.7687C21.3464 11.5751 29.9227 2.02344 40.5086 2.02344C51.0945 2.02344 59.6625 11.5751 59.6625 26.7687Z" fill="#FBBCA0"/>
<path d="M69.928 62.9407L48.9075 57.4502H32.0912L11.0707 62.9407C8.07948 64.2329 5.49439 66.3117 3.5904 68.956C1.68642 71.6002 0.534721 74.7111 0.257812 77.9577H80.7409C80.464 74.7111 79.3123 71.6002 77.4083 68.956C75.5043 66.3117 72.9192 64.2329 69.928 62.9407Z" fill="#FBBCA0"/>
<path d="M69.928 62.9407L48.9075 57.4502H32.0912L11.0707 62.9407C8.07948 64.2329 5.49439 66.3117 3.5904 68.956C1.68642 71.6002 0.534721 74.7111 0.257812 77.9577H80.7409C80.464 74.7111 79.3123 71.6002 77.4083 68.956C75.5043 66.3117 72.9192 64.2329 69.928 62.9407Z" fill="white"/>
<path d="M69.928 62.9406L54.3897 58.871L40.4994 77.9576L26.7688 58.8374L11.0791 62.9406C8.08632 64.2316 5.4995 66.3098 3.59397 68.9542C1.68843 71.5985 0.535485 74.7101 0.257812 77.9576H80.7409C80.464 74.711 79.3123 71.6001 77.4083 68.9558C75.5043 66.3116 72.9192 64.2328 69.928 62.9406Z" fill="#002C41"/>
<path d="M59.9293 24.8936C59.9293 24.8936 56.8099 39.507 46.3165 43.7111C46.3165 43.7111 45.0132 46.9566 40.6662 46.9566C36.3191 46.9566 35.0075 43.7111 35.0075 43.7111C24.5141 39.507 21.3946 24.8936 21.3946 24.8936C20.4781 41.2895 32.2496 48.3608 32.2496 48.3608C38.665 53.6075 40.6578 52.7078 40.6578 52.7078C40.6578 52.7078 42.6589 53.6075 49.0659 48.3608C49.0743 48.3608 60.7281 41.7267 59.9293 24.8936Z" fill="#3C2415"/>
<path d="M40.4994 38.8346C40.4994 38.8346 36.1696 37.5063 35.0094 43.7109C33.8304 43.4203 32.7416 42.8426 31.8398 42.0294C31.8398 42.0294 34.7488 34.7318 40.4994 38.8346Z" fill="#3C2415"/>
<path d="M40.8691 38.8346C40.8691 38.8346 45.2073 37.5063 46.3676 43.7109C47.5458 43.4183 48.6342 42.8409 49.5371 42.0294C49.5371 42.0294 46.6282 34.7318 40.8691 38.8346Z" fill="#3C2415"/>
<path d="M21.3963 24.8938C21.3963 24.8938 24.2466 7.79158 32.9743 9.47322C32.9743 9.47322 40.9032 14.4004 47.5121 9.3555C47.5121 9.3555 55.5335 9.08644 59.931 24.8938C59.931 24.8938 61.0324 8.02701 48.9246 2.02357C48.9246 2.02357 37.7249 -3.14746 28.1396 4.54602C25.3468 7.06112 23.2566 10.2596 22.0742 13.8272C20.8919 17.3948 20.6583 21.2086 21.3963 24.8938Z" fill="#3C2415"/>
<path d="M40.5007 77.9581L26.7701 58.8379L15.7891 61.7051L29.8223 71.5847L26.2152 73.1738L32.7063 77.9581H40.5007Z" fill="#002136"/>
<path d="M40.5 77.983L54.239 58.8628L65.22 61.73L51.1868 71.6096L54.7939 73.2071L48.3028 77.983H40.5Z" fill="#002136"/>
<path d="M23.8086 57.8457L32.0486 53.9863L40.4484 57.4925L48.8397 53.9863L57.6431 57.8457L45.199 66.1782L40.4484 59.3676L35.3194 66.1782L23.8086 57.8457Z" fill="#E2E3E4"/>
</svg>
