<svg width="82" height="80" viewBox="0 0 82 80" fill="none" xmlns="http://www.w3.org/2000/svg">
<path d="M49.407 49.5459H32.5586V60.8969H49.407V49.5459Z" fill="#FBBCA0"/>
<g style="mix-blend-mode:multiply">
<path d="M36.6969 57.7607C39.2595 58.7919 41.9893 59.3448 44.7512 59.3919C46.3312 59.3875 47.9075 59.2355 49.4593 58.9378V49.5459H32.6445V55.4316C33.8571 56.427 35.2265 57.2141 36.6969 57.7607Z" fill="#E6E7E8"/>
</g>
<path d="M59.2269 28.1551C59.2857 27.7347 59.9919 27.0536 60.303 26.8266C60.9924 26.3137 61.6902 26.8266 61.892 27.5077C62.0441 28.1242 62.1259 28.7561 62.1358 29.3911C62.2489 30.8892 61.9586 32.3902 61.2951 33.7381C60.8278 34.6389 60.1357 35.4036 59.2857 35.9579C59.179 36.0225 59.0572 36.0581 58.9324 36.0611C58.8076 36.0641 58.6843 36.0343 58.5746 35.9748C58.4649 35.9152 58.3727 35.828 58.3072 35.7218C58.2417 35.6156 58.2051 35.494 58.2012 35.3693L59.2269 28.1551Z" fill="#FBBCA0"/>
<path d="M59.0851 29.0883C59.1272 28.7856 59.6316 28.298 59.8502 28.1383C59.952 28.0667 60.0705 28.0224 60.1942 28.0094C60.318 27.9964 60.4431 28.0152 60.5575 28.064C60.672 28.1128 60.7722 28.1901 60.8485 28.2884C60.9248 28.3867 60.9747 28.5029 60.9936 28.6259C61.1007 29.0664 61.1571 29.5177 61.1617 29.9711C61.256 31.0406 61.0585 32.1157 60.59 33.0818C60.2561 33.7268 59.7608 34.2742 59.1524 34.6708C59.076 34.7159 58.9893 34.7405 58.9006 34.7421C58.8119 34.7437 58.7244 34.7223 58.6464 34.68C58.5685 34.6376 58.5029 34.5758 58.456 34.5005C58.4091 34.4252 58.3825 34.3391 58.3789 34.2504L59.0851 29.0883Z" fill="#DDA78F"/>
<path d="M22.3193 28.1551C22.2604 27.7347 21.5542 27.0536 21.2431 26.8266C20.5537 26.3137 19.8559 26.8266 19.6541 27.5077C19.502 28.1242 19.4202 28.7561 19.4103 29.3911C19.2926 30.8895 19.5831 32.3917 20.2511 33.7381C20.716 34.6379 21.4052 35.4025 22.252 35.9579C22.3587 36.0225 22.4806 36.0581 22.6053 36.0611C22.7301 36.0641 22.8534 36.0343 22.9631 35.9748C23.0728 35.9152 23.165 35.828 23.2305 35.7218C23.296 35.6156 23.3326 35.494 23.3366 35.3693L22.3193 28.1551Z" fill="#FBBCA0"/>
<path d="M22.4609 29.0882C22.4609 28.7856 21.9144 28.2979 21.6958 28.1382C21.1998 27.7683 20.7037 28.1382 20.5524 28.6258C20.4453 29.0664 20.3889 29.5177 20.3843 29.971C20.29 31.0405 20.4876 32.1156 20.956 33.0817C21.2922 33.7277 21.7905 34.2753 22.402 34.6707C22.4784 34.7159 22.5651 34.7405 22.6538 34.7421C22.7425 34.7437 22.8301 34.7223 22.908 34.6799C22.9859 34.6375 23.0515 34.5757 23.0984 34.5004C23.1453 34.4251 23.1719 34.339 23.1755 34.2504L22.4609 29.0882Z" fill="#DDA78F"/>
<path d="M59.783 29.5427C59.9113 34.2868 58.8567 38.9882 56.7143 43.2228C54.7086 46.7112 51.955 49.712 48.6516 52.0094C46.1294 53.876 43.3465 56.0537 40.1013 55.7846C36.6963 55.5072 34.09 52.6232 31.6519 50.3782C28.1056 47.1738 25.3931 43.1537 23.7489 38.6656C22.7206 35.7348 22.2058 32.6486 22.2272 29.5427C22.2272 14.1641 30.6346 4.48633 41.0261 4.48633C51.4176 4.48633 59.783 14.1641 59.783 29.5427Z" fill="#FBBCA0"/>
<path d="M70.409 66.034L49.3906 60.5435H32.5758L11.5574 66.034C8.56586 67.3243 5.9808 69.4028 4.0781 72.0476C2.1754 74.6924 1.02646 77.8042 0.753906 81.051H81.2545C80.9782 77.7997 79.823 74.6847 77.9125 72.0395C76.0021 69.3942 73.4084 67.3184 70.409 66.034Z" fill="#FBBCA0"/>
<path d="M70.409 66.034L49.3906 60.5435H32.5758L11.5574 66.034C8.56586 67.3243 5.9808 69.4028 4.0781 72.0476C2.1754 74.6924 1.02646 77.8042 0.753906 81.051H81.2545C80.9782 77.7997 79.823 74.6847 77.9125 72.0395C76.0021 69.3942 73.4084 67.3184 70.409 66.034Z" fill="white"/>
<path d="M27.2539 11.8433C27.2539 11.8433 33.5594 21.21 49.4157 22.2694C49.4157 22.2694 48.0874 21.6724 46.5236 17.5861C50.0952 20.5265 54.0351 22.9884 58.2435 24.9096L59.7484 27.9618C59.7484 27.9618 59.7484 26.4062 61.1777 26.6837C61.1777 26.6837 62.3799 14.4582 57.3355 8.45479C58.7678 8.54793 60.1441 9.0466 61.3038 9.89259C61.3038 9.89259 59.017 5.09152 51.2149 2.44294C51.2149 2.44294 53.1402 0.879021 56.6209 1.96368C56.6209 1.96368 52.0136 -0.197227 44.2872 0.164325C44.262 0.18955 29.1288 -0.432655 27.2539 11.8433Z" fill="#3C2415"/>
<path d="M29.7082 14.0713L22.2256 27.928C21.919 27.5503 21.5905 27.191 21.2419 26.8517C21.2419 26.8517 20.8636 7.8156 31.398 4.2085L29.7082 14.0713Z" fill="#3C2415"/>
<path d="M70.409 66.0339L54.8722 61.9643L40.9916 81.0509L27.254 61.9307L11.5658 66.0339C8.5727 67.323 5.98591 69.401 4.08166 72.0458C2.17742 74.6907 1.02722 77.8032 0.753906 81.0509H81.2545C80.9782 77.7995 79.823 74.6845 77.9125 72.0393C76.0021 69.3941 73.4084 67.3182 70.409 66.0339Z" fill="#414042"/>
<path d="M40.9827 81.0509L27.2535 61.9307L16.2734 64.7979L30.3053 74.6775L26.6986 76.2666L33.1891 81.0509H40.9827Z" fill="#363436"/>
<path d="M40.9824 81.0763L54.7201 61.9561L65.7001 64.8232L51.6682 74.7029L55.275 76.292L48.7845 81.0763H40.9824Z" fill="#363436"/>
<path d="M24.2949 60.9385L32.5342 57.0791L40.9331 60.5853L49.3237 57.0791L58.1262 60.9385L45.6833 69.271L40.9331 62.4603L35.813 69.271L24.2949 60.9385Z" fill="#E2E3E4"/>
</svg>
