<svg width="81" height="78" viewBox="0 0 81 78" fill="none" xmlns="http://www.w3.org/2000/svg">
<path d="M48.7133 46.1448H31.8633V57.4947H48.7133V46.1448Z" fill="#FBBCA0"/>
<g style="mix-blend-mode:multiply">
<path d="M35.9512 54.3501C38.5126 55.3871 41.2432 55.9429 44.0062 55.9896C45.5851 55.999 47.1615 55.8611 48.7148 55.5776V46.1445H31.8984V52.0297C33.1077 53.0278 34.4782 53.8125 35.9512 54.3501Z" fill="#E6E7E8"/>
</g>
<path d="M58.8794 25.118C58.9382 24.706 59.6613 24.0335 59.9808 23.8065C60.1249 23.7086 60.291 23.6481 60.4643 23.6304C60.6376 23.6127 60.8126 23.6384 60.9735 23.7051C61.1344 23.7718 61.2762 23.8774 61.3861 24.0125C61.4961 24.1476 61.5707 24.3079 61.6034 24.479C61.7557 25.087 61.8375 25.7104 61.8472 26.3371C61.9721 27.8195 61.6809 29.3073 61.0065 30.6332C60.5263 31.5288 59.8225 32.2848 58.9635 32.8276C58.8562 32.8848 58.7364 32.9147 58.6148 32.9147C58.4932 32.9146 58.3735 32.8846 58.2662 32.8272C58.159 32.7698 58.0676 32.6869 58 32.5858C57.9324 32.4847 57.8908 32.3685 57.8789 32.2475L58.8794 25.118Z" fill="#FBBCA0"/>
<path d="M58.7185 26.0092C58.7185 25.7149 59.2734 25.2357 59.5004 25.076C59.6031 25.0052 59.7219 24.9612 59.846 24.948C59.97 24.9349 60.0954 24.9529 60.2107 25.0005C60.326 25.0481 60.4275 25.1238 60.5061 25.2207C60.5847 25.3176 60.6378 25.4326 60.6606 25.5552C60.7746 25.9918 60.8339 26.4408 60.8372 26.892C60.9328 27.9489 60.7319 29.0116 60.2571 29.9607C59.9126 30.5995 59.4086 31.1382 58.7942 31.5244C58.7176 31.5709 58.6303 31.5968 58.5408 31.5996C58.4513 31.6025 58.3625 31.5823 58.2831 31.5409C58.2037 31.4995 58.1363 31.4383 58.0874 31.3633C58.0385 31.2882 58.0097 31.2019 58.0039 31.1125C58.0039 31.1125 58.7185 26.0176 58.7185 26.0092Z" fill="#DDA78F"/>
<path d="M21.2617 25.118C21.2028 24.706 20.4798 24.0335 20.1603 23.8065C20.0162 23.7086 19.85 23.6481 19.6767 23.6304C19.5034 23.6127 19.3285 23.6384 19.1676 23.7051C19.0067 23.7718 18.8649 23.8774 18.7549 24.0125C18.6449 24.1476 18.5703 24.3079 18.5377 24.479C18.3937 25.0885 18.312 25.7111 18.2939 26.3371C18.169 27.8195 18.4601 29.3073 19.1346 30.6332C19.6147 31.5288 20.3186 32.2848 21.1776 32.8276C21.2857 32.8905 21.408 32.925 21.533 32.9279C21.658 32.9307 21.7818 32.9018 21.8926 32.8439C22.0035 32.7859 22.0978 32.7008 22.1668 32.5965C22.2359 32.4922 22.2773 32.3721 22.2874 32.2475L21.2617 25.118Z" fill="#FBBCA0"/>
<path d="M21.4022 26.0092C21.4022 25.7149 20.8473 25.2357 20.6203 25.076C20.5176 25.0052 20.3988 24.9612 20.2747 24.948C20.1507 24.9349 20.0253 24.9529 19.91 25.0005C19.7947 25.0481 19.6932 25.1238 19.6146 25.2207C19.536 25.3176 19.4829 25.4326 19.4601 25.5552C19.3502 25.9926 19.2909 26.4411 19.2835 26.892C19.1909 27.9497 19.3947 29.0123 19.872 29.9607C20.2143 30.6011 20.7187 31.1403 21.3349 31.5244C21.4115 31.5709 21.4988 31.5968 21.5883 31.5996C21.6778 31.6025 21.7666 31.5823 21.846 31.5409C21.9254 31.4995 21.9928 31.4383 22.0417 31.3633C22.0906 31.2882 22.1194 31.2019 22.1252 31.1125C22.1252 31.1125 21.4106 26.0176 21.4022 26.0092Z" fill="#DDA78F"/>
<path d="M59.4515 26.4632C59.5807 31.16 58.5038 35.8116 56.3237 39.9739C54.2617 43.4386 51.4559 46.4021 48.1089 48.6503C45.4939 50.5335 42.694 52.6438 39.3812 52.3832C35.9338 52.1057 33.2516 49.264 30.7292 47.0445C27.136 43.9072 24.3697 39.9343 22.6741 35.4759C21.6341 32.5858 21.1132 29.5347 21.1354 26.4632C21.1354 11.2711 29.7118 1.71191 40.2893 1.71191C50.8668 1.71191 59.4515 11.2711 59.4515 26.4632Z" fill="#FBBCA0"/>
<path d="M69.7086 62.6317L48.6882 57.1333H31.8718L10.8514 62.6317C7.85958 63.9219 5.27427 66.0002 3.37139 68.6448C1.4685 71.2893 0.319454 74.4008 0.046875 77.6473H80.5216C80.2482 74.3999 79.0979 71.2877 77.1935 68.6431C75.2891 65.9985 72.702 63.9207 69.7086 62.6317Z" fill="#FBBCA0"/>
<path d="M69.7086 62.6317L48.6882 57.1333H31.8718L10.8514 62.6317C7.85958 63.9219 5.27427 66.0002 3.37139 68.6448C1.4685 71.2893 0.319454 74.4008 0.046875 77.6473H80.5216C80.2482 74.3999 79.0979 71.2877 77.1935 68.6431C75.2891 65.9985 72.702 63.9207 69.7086 62.6317Z" fill="white"/>
<path d="M69.7086 62.6316L54.1703 58.5624L40.2884 77.6472L26.5495 58.5288L10.8598 62.6316C7.86641 63.9206 5.27938 65.9984 3.37495 68.643C1.47052 71.2876 0.320216 74.3998 0.046875 77.6472H80.5216C80.2482 74.3998 79.0979 71.2876 77.1935 68.643C75.2891 65.9984 72.702 63.9206 69.7086 62.6316Z" fill="#002C41"/>
<path d="M21.1765 24.5882C21.1765 24.5882 23.9932 7.47922 32.763 9.1607C32.763 9.1607 40.6919 14.0958 47.3007 9.0514C47.3007 9.0514 55.3137 8.77396 59.7196 24.5882C59.7196 24.5882 60.8126 7.72304 48.7133 1.71176C48.7133 1.71176 37.5136 -3.45036 27.9282 4.23398C25.1319 6.74823 23.0387 9.9474 21.8548 13.5165C20.6709 17.0855 20.4371 20.9014 21.1765 24.5882Z" fill="#3C2415"/>
<path d="M40.2884 77.6472L26.5494 58.5288L15.5684 61.3957L29.6016 71.2744L26.0029 72.8634L32.4856 77.6472H40.2884Z" fill="#002136"/>
<path d="M40.2891 77.6721L54.0196 58.5537L65.0007 61.4206L50.9674 71.2993L54.5746 72.8883L48.0834 77.6721H40.2891Z" fill="#002136"/>
<path d="M23.5977 57.5367L31.8293 53.6777L40.229 57.1836L48.6204 53.6777L57.4238 57.5367L44.9797 65.8684L40.229 59.0585L35.1085 65.8684L23.5977 57.5367Z" fill="#E2E3E4"/>
</svg>
